<?xml version="1.0" encoding="UTF-8" standalone="no"?>
<!-- Created with Inkscape (http://www.inkscape.org/) -->

<svg
   width="210mm"
   height="297mm"
   viewBox="0 0 210 297"
   version="1.1"
   id="svg1"
   xml:space="preserve"
   inkscape:version="1.4 (e7c3feb100, 2024-10-09)"
   sodipodi:docname="keypad.svg"
   inkscape:export-filename="keypad.pdf"
   inkscape:export-xdpi="96"
   inkscape:export-ydpi="96"
   xmlns:inkscape="http://www.inkscape.org/namespaces/inkscape"
   xmlns:sodipodi="http://sodipodi.sourceforge.net/DTD/sodipodi-0.dtd"
   xmlns="http://www.w3.org/2000/svg"
   xmlns:svg="http://www.w3.org/2000/svg"><sodipodi:namedview
     id="namedview1"
     pagecolor="#ffffff"
     bordercolor="#eeeeee"
     borderopacity="1"
     inkscape:showpageshadow="0"
     inkscape:pageopacity="0"
     inkscape:pagecheckerboard="0"
     inkscape:deskcolor="#505050"
     inkscape:document-units="mm"
     inkscape:zoom="2.8284271"
     inkscape:cx="74.953319"
     inkscape:cy="135.58772"
     inkscape:window-width="1920"
     inkscape:window-height="1008"
     inkscape:window-x="0"
     inkscape:window-y="0"
     inkscape:window-maximized="1"
     inkscape:current-layer="layer1" /><defs
     id="defs1"><rect
       x="50.167628"
       y="45.697245"
       width="21.606849"
       height="29.926728"
       id="rect3" /><rect
       x="103.81222"
       y="52.154465"
       width="32.534452"
       height="13.162793"
       id="rect2" /><rect
       x="50.167629"
       y="45.697247"
       width="21.60685"
       height="29.926727"
       id="rect3-4" /><rect
       x="50.167629"
       y="45.697247"
       width="21.60685"
       height="29.926727"
       id="rect3-3" /><rect
       x="50.167629"
       y="45.697247"
       width="21.60685"
       height="29.926727"
       id="rect3-4-9" /><rect
       x="50.167629"
       y="45.697247"
       width="21.60685"
       height="29.926727"
       id="rect3-1" /><rect
       x="50.167629"
       y="45.697247"
       width="21.60685"
       height="29.926727"
       id="rect3-4-1" /><rect
       x="50.167629"
       y="45.697247"
       width="21.60685"
       height="29.926727"
       id="rect3-3-5" /><rect
       x="50.167629"
       y="45.697247"
       width="21.60685"
       height="29.926727"
       id="rect3-4-9-9" /><rect
       x="50.167629"
       y="45.697247"
       width="21.60685"
       height="29.926727"
       id="rect3-7" /><rect
       x="50.167629"
       y="45.697247"
       width="21.60685"
       height="29.926727"
       id="rect3-4-5" /><rect
       x="50.167629"
       y="45.697247"
       width="21.60685"
       height="29.926727"
       id="rect3-3-9" /><rect
       x="50.167629"
       y="45.697247"
       width="21.60685"
       height="29.926727"
       id="rect3-4-9-6" /><rect
       x="50.167629"
       y="45.697247"
       width="21.60685"
       height="29.926727"
       id="rect3-1-2" /><rect
       x="50.167629"
       y="45.697247"
       width="35.655908"
       height="29.575501"
       id="rect3-4-1-1" /><rect
       x="50.167629"
       y="45.697247"
       width="21.60685"
       height="29.926727"
       id="rect3-3-5-7" /><rect
       x="50.167629"
       y="45.697247"
       width="21.60685"
       height="29.926727"
       id="rect3-4-9-9-8" /><rect
       x="50.167629"
       y="45.697247"
       width="21.60685"
       height="29.926727"
       id="rect3-0" /><rect
       x="50.167629"
       y="45.697247"
       width="46.895153"
       height="24.863124"
       id="rect3-4-4" /><rect
       x="50.167629"
       y="45.697247"
       width="21.60685"
       height="29.926727"
       id="rect3-3-8" /><rect
       x="50.167629"
       y="45.697247"
       width="21.60685"
       height="29.926727"
       id="rect3-4-9-8" /><rect
       x="50.167629"
       y="45.697247"
       width="21.60685"
       height="29.926727"
       id="rect3-1-8" /><rect
       x="50.167629"
       y="45.697247"
       width="35.655908"
       height="27.994982"
       id="rect3-4-1-9" /><rect
       x="50.167629"
       y="45.697247"
       width="21.60685"
       height="29.926727"
       id="rect3-3-5-77" /><rect
       x="50.167629"
       y="45.697247"
       width="21.60685"
       height="29.926727"
       id="rect3-4-9-9-6" /><rect
       x="50.167629"
       y="45.697247"
       width="21.60685"
       height="29.926727"
       id="rect3-6" /><rect
       x="50.167629"
       y="45.697247"
       width="21.60685"
       height="29.926727"
       id="rect3-4-8" /><rect
       x="50.167629"
       y="45.697247"
       width="21.60685"
       height="29.926727"
       id="rect3-3-0" /><rect
       x="50.167629"
       y="45.697247"
       width="21.60685"
       height="29.926727"
       id="rect3-4-9-2" /><rect
       x="50.167629"
       y="45.697247"
       width="21.60685"
       height="29.926727"
       id="rect3-1-1" /><rect
       x="50.167629"
       y="45.697247"
       width="21.60685"
       height="29.926727"
       id="rect3-4-1-0" /><rect
       x="50.167629"
       y="45.697247"
       width="21.60685"
       height="29.926727"
       id="rect3-3-5-5" /><rect
       x="50.167629"
       y="45.697247"
       width="21.60685"
       height="29.926727"
       id="rect3-4-9-9-1" /><rect
       x="50.167629"
       y="45.697247"
       width="21.60685"
       height="29.926727"
       id="rect3-6-6" /></defs><g
     inkscape:label="Layer 1"
     inkscape:groupmode="layer"
     id="layer1"><text
       xml:space="preserve"
       transform="scale(0.26458333)"
       id="text1"
       style="text-align:start;writing-mode:lr-tb;direction:ltr;white-space:pre;shape-inside:url(#rect2);display:inline;fill:#252635;fill-opacity:1;stroke:#000000;stroke-width:0.0377953;stroke-dasharray:none;stroke-opacity:1"><tspan
         x="103.8125"
         y="76.234908"
         id="tspan4">1</tspan></text><g
       id="g15"
       transform="translate(2.1027832,2.8637657)"><rect
         style="fill:#252635;fill-opacity:1;stroke:#000000;stroke-width:0.0230813;stroke-dasharray:none;stroke-opacity:1"
         id="rect1"
         width="9.9769192"
         height="9.9769182"
         x="11.733888"
         y="9.7872887" /><text
         xml:space="preserve"
         transform="matrix(0.26458333,0,0,0.26458333,2.5329258,-0.49938523)"
         id="text2"
         style="font-style:normal;font-variant:normal;font-weight:bold;font-stretch:normal;font-size:14.6667px;font-family:'Noto Sans';-inkscape-font-specification:'Noto Sans, Bold';font-variant-ligatures:normal;font-variant-caps:normal;font-variant-numeric:normal;font-variant-east-asian:normal;text-align:start;writing-mode:lr-tb;direction:ltr;white-space:pre;shape-inside:url(#rect3);display:inline;fill:#ffffff;fill-opacity:1;stroke:#adadad;stroke-width:0.377953;stroke-dasharray:none;stroke-opacity:1"><tspan
           x="50.167969"
           y="59.042132"
           id="tspan5">1</tspan></text><text
         xml:space="preserve"
         transform="matrix(0.26458333,0,0,0.26458333,1.6128788,3.2413383)"
         id="text2-1"
         style="font-style:normal;font-variant:normal;font-weight:bold;font-stretch:normal;font-size:10.6667px;font-family:'Noto Sans';-inkscape-font-specification:'Noto Sans, Bold';font-variant-ligatures:normal;font-variant-caps:normal;font-variant-numeric:normal;font-variant-east-asian:normal;text-align:start;writing-mode:lr-tb;direction:ltr;white-space:pre;shape-inside:url(#rect3-4);display:inline;fill:#ffffff;fill-opacity:1;stroke:#adadad;stroke-width:0.377953;stroke-dasharray:none;stroke-opacity:1"><tspan
           x="50.167969"
           y="55.402632"
           id="tspan10">,.?!</tspan></text></g><g
       id="g14"><rect
         style="fill:#252635;fill-opacity:1;stroke:#000000;stroke-width:0.0230813;stroke-dasharray:none;stroke-opacity:1"
         id="rect1-8"
         width="9.9769192"
         height="9.9769182"
         x="23.813591"
         y="12.651054" /><text
         xml:space="preserve"
         transform="matrix(0.26458333,0,0,0.26458333,14.408901,2.3643805)"
         id="text2-8"
         style="font-style:normal;font-variant:normal;font-weight:bold;font-stretch:normal;font-size:14.6667px;font-family:'Noto Sans';-inkscape-font-specification:'Noto Sans, Bold';font-variant-ligatures:normal;font-variant-caps:normal;font-variant-numeric:normal;font-variant-east-asian:normal;text-align:start;writing-mode:lr-tb;direction:ltr;white-space:pre;shape-inside:url(#rect3-3);display:inline;fill:#ffffff;fill-opacity:1;stroke:#adadad;stroke-width:0.377953;stroke-dasharray:none;stroke-opacity:1"><tspan
           x="50.167969"
           y="59.042132"
           id="tspan11">2</tspan></text><text
         xml:space="preserve"
         transform="matrix(0.26458333,0,0,0.26458333,12.751368,6.105104)"
         id="text2-1-0"
         style="font-style:normal;font-variant:normal;font-weight:bold;font-stretch:normal;font-size:10.6667px;font-family:'Noto Sans';-inkscape-font-specification:'Noto Sans, Bold';font-variant-ligatures:normal;font-variant-caps:normal;font-variant-numeric:normal;font-variant-east-asian:normal;text-align:start;writing-mode:lr-tb;direction:ltr;white-space:pre;shape-inside:url(#rect3-4-9);display:inline;fill:#ffffff;fill-opacity:1;stroke:#adadad;stroke-width:0.377953;stroke-dasharray:none;stroke-opacity:1"><tspan
           x="50.167969"
           y="55.402632"
           id="tspan12">ABC</tspan></text></g><g
       id="g16"><rect
         style="fill:#252635;fill-opacity:1;stroke:#000000;stroke-width:0.0230813;stroke-dasharray:none;stroke-opacity:1"
         id="rect1-81"
         width="9.9769192"
         height="9.9769182"
         x="33.790512"
         y="12.651054" /><text
         xml:space="preserve"
         transform="matrix(0.26458333,0,0,0.26458333,24.399403,2.3643805)"
         id="text2-0"
         style="font-style:normal;font-variant:normal;font-weight:bold;font-stretch:normal;font-size:14.6667px;font-family:'Noto Sans';-inkscape-font-specification:'Noto Sans, Bold';font-variant-ligatures:normal;font-variant-caps:normal;font-variant-numeric:normal;font-variant-east-asian:normal;text-align:start;writing-mode:lr-tb;direction:ltr;white-space:pre;shape-inside:url(#rect3-1);display:inline;fill:#ffffff;fill-opacity:1;stroke:#adadad;stroke-width:0.377953;stroke-dasharray:none;stroke-opacity:1"><tspan
           x="50.167969"
           y="59.042132"
           id="tspan13">3</tspan></text><text
         xml:space="preserve"
         transform="matrix(0.26458333,0,0,0.26458333,22.858111,6.105104)"
         id="text2-1-04"
         style="font-style:normal;font-variant:normal;font-weight:bold;font-stretch:normal;font-size:10.6667px;font-family:'Noto Sans';-inkscape-font-specification:'Noto Sans, Bold';font-variant-ligatures:normal;font-variant-caps:normal;font-variant-numeric:normal;font-variant-east-asian:normal;text-align:start;writing-mode:lr-tb;direction:ltr;white-space:pre;shape-inside:url(#rect3-4-1);display:inline;fill:#ffffff;fill-opacity:1;stroke:#adadad;stroke-width:0.377953;stroke-dasharray:none;stroke-opacity:1"><tspan
           x="50.167969"
           y="55.402632"
           id="tspan14">DEF</tspan></text></g><rect
       style="fill:#352e25;fill-opacity:1;stroke:#000000;stroke-width:0.0230813;stroke-dasharray:none;stroke-opacity:1"
       id="rect1-8-4"
       width="9.9769192"
       height="9.9769182"
       x="43.767433"
       y="12.651054" /><g
       id="g17"><rect
         style="fill:#252635;fill-opacity:1;stroke:#000000;stroke-width:0.0230813;stroke-dasharray:none;stroke-opacity:1"
         id="rect1-4"
         width="9.9769192"
         height="9.9769182"
         x="13.83667"
         y="22.627972" /><text
         xml:space="preserve"
         transform="matrix(0.26458333,0,0,0.26458333,4.4416799,12.341298)"
         id="text2-18"
         style="font-style:normal;font-variant:normal;font-weight:bold;font-stretch:normal;font-size:14.6667px;font-family:'Noto Sans';-inkscape-font-specification:'Noto Sans, Bold';font-variant-ligatures:normal;font-variant-caps:normal;font-variant-numeric:normal;font-variant-east-asian:normal;text-align:start;writing-mode:lr-tb;direction:ltr;white-space:pre;shape-inside:url(#rect3-7);display:inline;fill:#ffffff;fill-opacity:1;stroke:#adadad;stroke-width:0.377953;stroke-dasharray:none;stroke-opacity:1"><tspan
           x="50.167969"
           y="59.042132"
           id="tspan15">4</tspan></text><text
         xml:space="preserve"
         transform="matrix(0.26458333,0,0,0.26458333,2.8647569,16.082021)"
         id="text2-1-7"
         style="font-style:normal;font-variant:normal;font-weight:bold;font-stretch:normal;font-size:10.6667px;font-family:'Noto Sans';-inkscape-font-specification:'Noto Sans, Bold';font-variant-ligatures:normal;font-variant-caps:normal;font-variant-numeric:normal;font-variant-east-asian:normal;text-align:start;writing-mode:lr-tb;direction:ltr;white-space:pre;shape-inside:url(#rect3-4-5);display:inline;fill:#ffffff;fill-opacity:1;stroke:#adadad;stroke-width:0.377953;stroke-dasharray:none;stroke-opacity:1"><tspan
           x="50.167969"
           y="55.402632"
           id="tspan16">GHI</tspan></text></g><g
       id="g18"><rect
         style="fill:#252635;fill-opacity:1;stroke:#000000;stroke-width:0.0230813;stroke-dasharray:none;stroke-opacity:1"
         id="rect1-8-8"
         width="9.9769192"
         height="9.9769182"
         x="23.813591"
         y="22.627972" /><text
         xml:space="preserve"
         transform="matrix(0.26458333,0,0,0.26458333,14.41278,12.341298)"
         id="text2-8-8"
         style="font-style:normal;font-variant:normal;font-weight:bold;font-stretch:normal;font-size:14.6667px;font-family:'Noto Sans';-inkscape-font-specification:'Noto Sans, Bold';font-variant-ligatures:normal;font-variant-caps:normal;font-variant-numeric:normal;font-variant-east-asian:normal;text-align:start;writing-mode:lr-tb;direction:ltr;white-space:pre;shape-inside:url(#rect3-3-9);display:inline;fill:#ffffff;fill-opacity:1;stroke:#adadad;stroke-width:0.377953;stroke-dasharray:none;stroke-opacity:1"><tspan
           x="50.167969"
           y="59.042132"
           id="tspan17">5</tspan></text><text
         xml:space="preserve"
         transform="matrix(0.26458333,0,0,0.26458333,13.485149,16.082021)"
         id="text2-1-0-3"
         style="font-style:normal;font-variant:normal;font-weight:bold;font-stretch:normal;font-size:10.6667px;font-family:'Noto Sans';-inkscape-font-specification:'Noto Sans, Bold';font-variant-ligatures:normal;font-variant-caps:normal;font-variant-numeric:normal;font-variant-east-asian:normal;text-align:start;writing-mode:lr-tb;direction:ltr;white-space:pre;shape-inside:url(#rect3-4-9-6);display:inline;fill:#ffffff;fill-opacity:1;stroke:#adadad;stroke-width:0.377953;stroke-dasharray:none;stroke-opacity:1"><tspan
           x="50.167969"
           y="55.402632"
           id="tspan18">JKL</tspan></text></g><g
       id="g19"><rect
         style="fill:#252635;fill-opacity:1;stroke:#000000;stroke-width:0.0230813;stroke-dasharray:none;stroke-opacity:1"
         id="rect1-81-8"
         width="9.9769192"
         height="9.9769182"
         x="33.790512"
         y="22.627972" /><text
         xml:space="preserve"
         transform="matrix(0.26458333,0,0,0.26458333,24.391641,12.341298)"
         id="text2-0-9"
         style="font-style:normal;font-variant:normal;font-weight:bold;font-stretch:normal;font-size:14.6667px;font-family:'Noto Sans';-inkscape-font-specification:'Noto Sans, Bold';font-variant-ligatures:normal;font-variant-caps:normal;font-variant-numeric:normal;font-variant-east-asian:normal;text-align:start;writing-mode:lr-tb;direction:ltr;white-space:pre;shape-inside:url(#rect3-1-2);display:inline;fill:#ffffff;fill-opacity:1;stroke:#adadad;stroke-width:0.377953;stroke-dasharray:none;stroke-opacity:1"><tspan
           x="50.167969"
           y="59.042132"
           id="tspan19">6</tspan></text><text
         xml:space="preserve"
         transform="matrix(0.26458333,0,0,0.26458333,21.863273,16.082021)"
         id="text2-1-04-6"
         style="font-style:normal;font-variant:normal;font-weight:bold;font-stretch:normal;font-size:10.6667px;font-family:'Noto Sans';-inkscape-font-specification:'Noto Sans, Bold';font-variant-ligatures:normal;font-variant-caps:normal;font-variant-numeric:normal;font-variant-east-asian:normal;text-align:start;writing-mode:lr-tb;direction:ltr;white-space:pre;shape-inside:url(#rect3-4-1-1);display:inline;fill:#ffffff;fill-opacity:1;stroke:#adadad;stroke-width:0.377953;stroke-dasharray:none;stroke-opacity:1"><tspan
           x="50.167969"
           y="55.402632"
           id="tspan20">MNO</tspan></text></g><rect
       style="fill:#352e25;fill-opacity:1;stroke:#000000;stroke-width:0.0230813;stroke-dasharray:none;stroke-opacity:1"
       id="rect1-8-4-3"
       width="9.9769192"
       height="9.9769182"
       x="43.767433"
       y="22.627972" /><g
       id="g22"><rect
         style="fill:#252635;fill-opacity:1;stroke:#000000;stroke-width:0.0230813;stroke-dasharray:none;stroke-opacity:1"
         id="rect1-0"
         width="9.9769192"
         height="9.9769182"
         x="13.83667"
         y="32.604889" /><text
         xml:space="preserve"
         transform="matrix(0.26458333,0,0,0.26458333,4.4533215,22.318215)"
         id="text2-3"
         style="font-style:normal;font-variant:normal;font-weight:bold;font-stretch:normal;font-size:14.6667px;font-family:'Noto Sans';-inkscape-font-specification:'Noto Sans, Bold';font-variant-ligatures:normal;font-variant-caps:normal;font-variant-numeric:normal;font-variant-east-asian:normal;text-align:start;writing-mode:lr-tb;direction:ltr;white-space:pre;shape-inside:url(#rect3-0);display:inline;fill:#ffffff;fill-opacity:1;stroke:#adadad;stroke-width:0.377953;stroke-dasharray:none;stroke-opacity:1"><tspan
           x="50.167969"
           y="59.042132"
           id="tspan21">7</tspan></text><text
         xml:space="preserve"
         transform="matrix(0.26458333,0,0,0.26458333,1.7923084,26.058938)"
         id="text2-1-9"
         style="font-style:normal;font-variant:normal;font-weight:bold;font-stretch:normal;font-size:10.6667px;font-family:'Noto Sans';-inkscape-font-specification:'Noto Sans, Bold';font-variant-ligatures:normal;font-variant-caps:normal;font-variant-numeric:normal;font-variant-east-asian:normal;text-align:start;writing-mode:lr-tb;direction:ltr;white-space:pre;shape-inside:url(#rect3-4-4);display:inline;fill:#ffffff;fill-opacity:1;stroke:#adadad;stroke-width:0.377953;stroke-dasharray:none;stroke-opacity:1"><tspan
           x="50.167969"
           y="55.402632"
           id="tspan22">PQRS</tspan></text></g><g
       id="g21"><rect
         style="fill:#252635;fill-opacity:1;stroke:#000000;stroke-width:0.0230813;stroke-dasharray:none;stroke-opacity:1"
         id="rect1-8-40"
         width="9.9769192"
         height="9.9769182"
         x="23.813591"
         y="32.604889" /><text
         xml:space="preserve"
         transform="matrix(0.26458333,0,0,0.26458333,14.420541,22.318214)"
         id="text2-8-5"
         style="font-style:normal;font-variant:normal;font-weight:bold;font-stretch:normal;font-size:14.6667px;font-family:'Noto Sans';-inkscape-font-specification:'Noto Sans, Bold';font-variant-ligatures:normal;font-variant-caps:normal;font-variant-numeric:normal;font-variant-east-asian:normal;text-align:start;writing-mode:lr-tb;direction:ltr;white-space:pre;shape-inside:url(#rect3-3-8);display:inline;fill:#ffffff;fill-opacity:1;stroke:#adadad;stroke-width:0.377953;stroke-dasharray:none;stroke-opacity:1"><tspan
           x="50.167969"
           y="59.042132"
           id="tspan23">8</tspan></text><text
         xml:space="preserve"
         transform="matrix(0.26458333,0,0,0.26458333,12.703389,26.058938)"
         id="text2-1-0-4"
         style="font-style:normal;font-variant:normal;font-weight:bold;font-stretch:normal;font-size:10.6667px;font-family:'Noto Sans';-inkscape-font-specification:'Noto Sans, Bold';font-variant-ligatures:normal;font-variant-caps:normal;font-variant-numeric:normal;font-variant-east-asian:normal;text-align:start;writing-mode:lr-tb;direction:ltr;white-space:pre;shape-inside:url(#rect3-4-9-8);display:inline;fill:#ffffff;fill-opacity:1;stroke:#adadad;stroke-width:0.377953;stroke-dasharray:none;stroke-opacity:1"><tspan
           x="50.167969"
           y="55.402632"
           id="tspan24">TUV</tspan></text></g><g
       id="g20"><rect
         style="fill:#252635;fill-opacity:1;stroke:#000000;stroke-width:0.0230813;stroke-dasharray:none;stroke-opacity:1"
         id="rect1-81-2"
         width="9.9769192"
         height="9.9769182"
         x="33.790512"
         y="32.604889" /><text
         xml:space="preserve"
         transform="matrix(0.26458333,0,0,0.26458333,24.403283,22.318215)"
         id="text2-0-2"
         style="font-style:normal;font-variant:normal;font-weight:bold;font-stretch:normal;font-size:14.6667px;font-family:'Noto Sans';-inkscape-font-specification:'Noto Sans, Bold';font-variant-ligatures:normal;font-variant-caps:normal;font-variant-numeric:normal;font-variant-east-asian:normal;text-align:start;writing-mode:lr-tb;direction:ltr;white-space:pre;shape-inside:url(#rect3-1-8);display:inline;fill:#ffffff;fill-opacity:1;stroke:#adadad;stroke-width:0.377953;stroke-dasharray:none;stroke-opacity:1"><tspan
           x="50.167969"
           y="59.042132"
           id="tspan25">9</tspan></text><text
         xml:space="preserve"
         transform="matrix(0.26458333,0,0,0.26458333,21.528839,26.058938)"
         id="text2-1-04-7"
         style="font-style:normal;font-variant:normal;font-weight:bold;font-stretch:normal;font-size:10.6667px;font-family:'Noto Sans';-inkscape-font-specification:'Noto Sans, Bold';font-variant-ligatures:normal;font-variant-caps:normal;font-variant-numeric:normal;font-variant-east-asian:normal;text-align:start;writing-mode:lr-tb;direction:ltr;white-space:pre;shape-inside:url(#rect3-4-1-9);display:inline;fill:#ffffff;fill-opacity:1;stroke:#adadad;stroke-width:0.377953;stroke-dasharray:none;stroke-opacity:1"><tspan
           x="50.167969"
           y="55.402632"
           id="tspan26">WXYZ</tspan></text></g><rect
       style="fill:#352e25;fill-opacity:1;stroke:#000000;stroke-width:0.0230813;stroke-dasharray:none;stroke-opacity:1"
       id="rect1-8-4-4"
       width="9.9769192"
       height="9.9769182"
       x="43.767433"
       y="32.604889" /><rect
       style="fill:#25352d;fill-opacity:1;stroke:#000000;stroke-width:0.0230813;stroke-dasharray:none;stroke-opacity:1"
       id="rect1-8-6"
       width="9.9769192"
       height="9.9769182"
       x="23.813591"
       y="42.581806" /><rect
       style="fill:#252635;fill-opacity:1;stroke:#000000;stroke-width:0.0230813;stroke-dasharray:none;stroke-opacity:1"
       id="rect1-81-0"
       width="9.9769192"
       height="9.9769182"
       x="33.790512"
       y="42.581806" /><rect
       style="fill:#25352d;fill-opacity:1;stroke:#000000;stroke-width:0.0230813;stroke-dasharray:none;stroke-opacity:1"
       id="rect1-8-4-8"
       width="9.9769192"
       height="9.9769182"
       x="43.767433"
       y="42.581806" /><g
       id="g23"><rect
         style="fill:#252635;fill-opacity:1;stroke:#000000;stroke-width:0.0230813;stroke-dasharray:none;stroke-opacity:1"
         id="rect1-85"
         width="9.9769192"
         height="9.9769182"
         x="13.83667"
         y="42.581806" /><text
         xml:space="preserve"
         transform="matrix(0.26458333,0,0,0.26458333,4.4436201,32.295132)"
         id="text2-06"
         style="font-style:normal;font-variant:normal;font-weight:bold;font-stretch:normal;font-size:14.6667px;font-family:'Noto Sans';-inkscape-font-specification:'Noto Sans, Bold';font-variant-ligatures:normal;font-variant-caps:normal;font-variant-numeric:normal;font-variant-east-asian:normal;text-align:start;writing-mode:lr-tb;direction:ltr;white-space:pre;shape-inside:url(#rect3-6);display:inline;fill:#ffffff;fill-opacity:1;stroke:#adadad;stroke-width:0.377953;stroke-dasharray:none;stroke-opacity:1"><tspan
           x="50.167969"
           y="59.042132"
           id="tspan27">0</tspan></text><path
         id="rect22"
         style="fill:#ffffff;fill-opacity:1;stroke:#adadad;stroke-width:0.109107;stroke-dasharray:none;stroke-opacity:1"
         d="m 17.615643,49.375798 v 1.386995 h 0.387057 1.644861 0.387056 v -0.390674 -0.996321 h -0.387056 v 0.996321 H 18.0027 v -0.996321 z" /></g><rect
       style="fill:#25352d;fill-opacity:1;stroke:#000000;stroke-width:0.0230813;stroke-dasharray:none;stroke-opacity:1"
       id="rect1-8-6-3"
       width="9.9769192"
       height="9.9769182"
       x="23.813591"
       y="52.558723" /><rect
       style="fill:#25352d;fill-opacity:1;stroke:#000000;stroke-width:0.0230813;stroke-dasharray:none;stroke-opacity:1"
       id="rect1-81-0-3"
       width="9.9769192"
       height="9.9769182"
       x="33.790512"
       y="52.558723" /><path
       style="fill:#ffffff;fill-opacity:1;stroke:#adadad;stroke-width:0.0913666;stroke-dasharray:none;stroke-opacity:1"
       d="m 37.092416,55.627239 3.327387,1.919942 -3.327387,1.919945 z"
       id="path23-5" /><rect
       style="fill:#25352d;fill-opacity:1;stroke:#000000;stroke-width:0.0230813;stroke-dasharray:none;stroke-opacity:1"
       id="rect1-8-4-8-8"
       width="9.9769192"
       height="9.9769182"
       x="43.767433"
       y="52.558723" /><rect
       style="fill:#25352d;fill-opacity:1;stroke:#000000;stroke-width:0.0230813;stroke-dasharray:none;stroke-opacity:1"
       id="rect1-85-5"
       width="9.9769192"
       height="9.9769182"
       x="13.83667"
       y="52.558723" /><path
       style="fill:#ffffff;fill-opacity:1;stroke:#adadad;stroke-width:0.0913666;stroke-dasharray:none;stroke-opacity:1"
       d="m 20.511685,59.467126 -3.327387,-1.919942 3.327387,-1.919945 z"
       id="path23-5-7" /><path
       style="fill:#ffffff;fill-opacity:1;stroke:#adadad;stroke-width:0.0913666;stroke-dasharray:none;stroke-opacity:1"
       d="m 26.882107,49.256821 1.919942,-3.327387 1.919945,3.327387 z"
       id="path23-6" /><path
       style="fill:#ffffff;fill-opacity:1;stroke:#adadad;stroke-width:0.0913666;stroke-dasharray:none;stroke-opacity:1"
       d="m 30.721994,55.860627 -1.919942,3.327387 -1.919945,-3.327387 z"
       id="path23-6-4" /><g
       style="font-variation-settings:normal;opacity:1;vector-effect:none;fill:#ffffff;fill-opacity:1;stroke:#adadad;stroke-width:13.8129;stroke-linecap:butt;stroke-linejoin:miter;stroke-miterlimit:4;stroke-dasharray:none;stroke-dashoffset:0;stroke-opacity:1;-inkscape-stroke:none;stop-color:#000000;stop-opacity:1"
       id="g24"
       transform="matrix(0.00661458,0,0,0.00661458,35.603973,50.745264)"><path
         d="m 160,-200 q -33,0 -56.5,-23.5 Q 80,-247 80,-280 v -400 q 0,-33 23.5,-56.5 Q 127,-760 160,-760 h 640 q 33,0 56.5,23.5 23.5,23.5 23.5,56.5 v 400 q 0,33 -23.5,56.5 Q 833,-200 800,-200 Z m 0,-80 H 800 V -680 H 160 Z m 160,-40 h 320 v -80 H 320 Z M 200,-440 h 80 v -80 h -80 z m 120,0 h 80 v -80 h -80 z m 120,0 h 80 v -80 h -80 z m 120,0 h 80 v -80 h -80 z m 120,0 h 80 v -80 H 680 Z M 200,-560 h 80 v -80 h -80 z m 120,0 h 80 v -80 h -80 z m 120,0 h 80 v -80 h -80 z m 120,0 h 80 v -80 h -80 z m 120,0 h 80 v -80 h -80 z m -520,280 v -400 z"
         id="path1"
         style="font-variation-settings:normal;vector-effect:none;fill:#ffffff;fill-opacity:1;stroke:#adadad;stroke-width:13.8129;stroke-linecap:butt;stroke-linejoin:miter;stroke-miterlimit:4;stroke-dasharray:none;stroke-dashoffset:0;stroke-opacity:1;-inkscape-stroke:none;stop-color:#000000;stop-opacity:1" /></g><g
       id="g33"><path
         style="font-variation-settings:normal;vector-effect:none;fill:#ffffff;fill-opacity:1;stroke:#adadad;stroke-width:0.0913665;stroke-linecap:butt;stroke-linejoin:miter;stroke-miterlimit:4;stroke-dasharray:none;stroke-dashoffset:0;stroke-opacity:1;-inkscape-stroke:none;stop-color:#000000"
         d="m 49.285059,20.549929 q -0.112447,0 -0.188515,-0.07607 -0.07607,-0.07607 -0.07607,-0.188515 0,-0.112448 0.07607,-0.188516 0.07607,-0.07607 0.188515,-0.07607 0.112448,0 0.188516,0.07607 0.07607,0.07607 0.07607,0.188516 0,0.112448 -0.07607,0.188515 -0.07607,0.07607 -0.188516,0.07607 z"
         id="path32" /><path
         style="font-variation-settings:normal;vector-effect:none;fill:#ffffff;fill-opacity:1;stroke:#adadad;stroke-width:0.0913665;stroke-linecap:butt;stroke-linejoin:miter;stroke-miterlimit:4;stroke-dasharray:none;stroke-dashoffset:0;stroke-opacity:1;-inkscape-stroke:none;stop-color:#000000"
         d="m 48.226727,20.549929 q -0.112448,0 -0.188516,-0.07607 -0.07607,-0.07607 -0.07607,-0.188515 0,-0.112448 0.07607,-0.188516 0.07607,-0.07607 0.188516,-0.07607 0.112447,0 0.188515,0.07607 0.07607,0.07607 0.07607,0.188516 0,0.112448 -0.07607,0.188515 -0.07607,0.07607 -0.188515,0.07607 z"
         id="path31" /><path
         style="font-variation-settings:normal;vector-effect:none;fill:#ffffff;fill-opacity:1;stroke:#adadad;stroke-width:0.0913665;stroke-linecap:butt;stroke-linejoin:miter;stroke-miterlimit:4;stroke-dasharray:none;stroke-dashoffset:0;stroke-opacity:1;-inkscape-stroke:none;stop-color:#000000"
         d="m 48.755892,19.227013 q -0.886353,0 -1.501509,-0.615156 -0.615156,-0.615156 -0.615156,-1.50151 0,-0.522551 0.241432,-0.978957 0.241432,-0.456406 0.67138,-0.754063 l 0.383645,0.383646 q -0.357187,0.211667 -0.562239,0.572161 -0.205052,0.360495 -0.205052,0.777213 0,0.661458 0.463021,1.124479 0.46302,0.463021 1.124478,0.463021 0.661458,0 1.124479,-0.463021 0.463021,-0.463021 0.463021,-1.124479 0,-0.416718 -0.205052,-0.777213 -0.205052,-0.360494 -0.56224,-0.572161 l 0.383646,-0.383646 q 0.429948,0.297657 0.67138,0.754063 0.241432,0.456406 0.241432,0.978957 0,0.886354 -0.615156,1.50151 -0.615156,0.615156 -1.50151,0.615156 z"
         id="path30" /><path
         style="font-variation-settings:normal;vector-effect:none;fill:#ffffff;fill-opacity:1;stroke:#adadad;stroke-width:0.0913665;stroke-linecap:butt;stroke-linejoin:miter;stroke-miterlimit:4;stroke-dasharray:none;stroke-dashoffset:0;stroke-opacity:1;-inkscape-stroke:none;stop-color:#000000"
         d="m 48.491309,17.374931 v -2.645832 h 0.529167 v 2.645832 z"
         id="path1-0" /></g><g
       style="font-variation-settings:normal;opacity:1;vector-effect:none;fill:#ffffff;fill-opacity:1;stroke:#adadad;stroke-width:13.8129;stroke-linecap:butt;stroke-linejoin:miter;stroke-miterlimit:4;stroke-dasharray:none;stroke-dashoffset:0;stroke-opacity:1;-inkscape-stroke:none;stop-color:#000000;stop-opacity:1"
       id="g26"
       transform="matrix(0.00661458,0,0,0.00661458,45.580894,30.791429)"><path
         d="m 370,-80 -16,-128 q -13,-5 -24.5,-12 -11.5,-7 -22.5,-15 l -119,50 -110,-190 103,-78 q -1,-7 -1,-13.5 v -27 q 0,-6.5 1,-13.5 l -103,-78 110,-190 119,50 q 11,-8 23,-15 12,-7 24,-12 l 16,-128 h 220 l 16,128 q 13,5 24.5,12 11.5,7 22.5,15 l 119,-50 110,190 -103,78 q 1,7 1,13.5 v 27 q 0,6.5 -2,13.5 l 103,78 -110,190 -118,-50 q -11,8 -23,15 -12,7 -24,12 l -16,128 z m 70,-80 h 79 l 14,-106 q 31,-8 57.5,-23.5 Q 617,-305 639,-327 l 99,41 39,-68 -86,-65 q 5,-14 7,-29.5 2,-15.5 2,-31.5 0,-16 -2,-31.5 -2,-15.5 -7,-29.5 l 86,-65 -39,-68 -99,42 Q 617,-655 590.5,-670.5 564,-686 533,-694 l -13,-106 h -79 l -14,106 q -31,8 -57.5,23.5 Q 343,-655 321,-633 l -99,-41 -39,68 86,64 q -5,15 -7,30 -2,15 -2,32 0,16 2,31 2,15 7,30 l -86,65 39,68 99,-42 q 22,23 48.5,38.5 26.5,15.5 57.5,23.5 z m 42,-180 q 58,0 99,-41 41,-41 41,-99 0,-58 -41,-99 -41,-41 -99,-41 -59,0 -99.5,41 -40.5,41 -40.5,99 0,58 40.5,99 40.5,41 99.5,41 z m -2,-140 z"
         id="path1-1"
         style="font-variation-settings:normal;vector-effect:none;fill:#ffffff;fill-opacity:1;stroke:#adadad;stroke-width:13.8129;stroke-linecap:butt;stroke-linejoin:miter;stroke-miterlimit:4;stroke-dasharray:none;stroke-dashoffset:0;stroke-opacity:1;-inkscape-stroke:none;stop-color:#000000;stop-opacity:1" /></g><g
       style="font-variation-settings:normal;opacity:1;vector-effect:none;fill:#ffffff;fill-opacity:1;stroke:#adadad;stroke-width:13.8129;stroke-linecap:butt;stroke-linejoin:miter;stroke-miterlimit:4;stroke-dasharray:none;stroke-dashoffset:0;stroke-opacity:1;-inkscape-stroke:none;stop-color:#000000;stop-opacity:1"
       id="g27"
       transform="matrix(0.00661458,0,0,0.00661458,45.580894,40.774057)"><path
         d="m 240,-200 h 120 v -240 h 240 v 240 H 720 V -560 L 480,-740 240,-560 Z m -80,80 v -480 l 320,-240 320,240 v 480 H 520 v -240 h -80 v 240 z m 320,-350 z"
         id="path1-5"
         style="font-variation-settings:normal;vector-effect:none;fill:#ffffff;fill-opacity:1;stroke:#adadad;stroke-width:13.8129;stroke-linecap:butt;stroke-linejoin:miter;stroke-miterlimit:4;stroke-dasharray:none;stroke-dashoffset:0;stroke-opacity:1;-inkscape-stroke:none;stop-color:#000000;stop-opacity:1" /></g><g
       style="font-variation-settings:normal;opacity:1;vector-effect:none;fill:#ffffff;fill-opacity:1;stroke:#adadad;stroke-width:13.8129;stroke-linecap:butt;stroke-linejoin:miter;stroke-miterlimit:4;stroke-dasharray:none;stroke-dashoffset:0;stroke-opacity:1;-inkscape-stroke:none;stop-color:#000000;stop-opacity:1"
       id="g28"
       transform="matrix(0.00661458,0,0,0.00661458,45.590356,50.887017)"><path
         d="m 280,-200 v -80 h 284 q 63,0 109.5,-40 46.5,-40 46.5,-100 0,-60 -46.5,-100 Q 627,-560 564,-560 H 312 l 104,104 -56,56 -200,-200 200,-200 56,56 -104,104 h 252 q 97,0 166.5,63 69.5,63 69.5,157 0,94 -69.5,157 -69.5,63 -166.5,63 z"
         id="path1-4"
         style="font-variation-settings:normal;vector-effect:none;fill:#ffffff;fill-opacity:1;stroke:#adadad;stroke-width:13.8129;stroke-linecap:butt;stroke-linejoin:miter;stroke-miterlimit:4;stroke-dasharray:none;stroke-dashoffset:0;stroke-opacity:1;-inkscape-stroke:none;stop-color:#000000;stop-opacity:1" /></g><g
       style="font-variation-settings:normal;opacity:1;vector-effect:none;fill:#ffffff;fill-opacity:1;stroke:#adadad;stroke-width:13.8129;stroke-linecap:butt;stroke-linejoin:miter;stroke-miterlimit:4;stroke-dasharray:none;stroke-dashoffset:0;stroke-opacity:1;-inkscape-stroke:none;stop-color:#000000;stop-opacity:1"
       id="g29"
       transform="matrix(0.00661458,0,0,0.00661458,45.580894,60.722181)"><path
         d="m 424,-296 282,-282 -56,-56 -226,226 -114,-114 -56,56 z m 56,216 Q 397,-80 324,-111.5 251,-143 197,-197 143,-251 111.5,-324 80,-397 80,-480 q 0,-83 31.5,-156 31.5,-73 85.5,-127 54,-54 127,-85.5 73,-31.5 156,-31.5 83,0 156,31.5 73,31.5 127,85.5 54,54 85.5,127 31.5,73 31.5,156 0,83 -31.5,156 -31.5,73 -85.5,127 -54,54 -127,85.5 Q 563,-80 480,-80 Z m 0,-80 q 134,0 227,-93 93,-93 93,-227 0,-134 -93,-227 -93,-93 -227,-93 -134,0 -227,93 -93,93 -93,227 0,134 93,227 93,93 227,93 z m 0,-320 z"
         id="path1-7"
         style="font-variation-settings:normal;vector-effect:none;fill:#ffffff;fill-opacity:1;stroke:#adadad;stroke-width:13.8129;stroke-linecap:butt;stroke-linejoin:miter;stroke-miterlimit:4;stroke-dasharray:none;stroke-dashoffset:0;stroke-opacity:1;-inkscape-stroke:none;stop-color:#000000;stop-opacity:1" /></g></g></svg>
